<svg version="1.1" id="Layer_1" xmlns="http://www.w3.org/2000/svg" xmlns:xlink="http://www.w3.org/1999/xlink" x="0px" y="0px" viewBox="0 0 299.2 133.9" style="enable-background:new 0 0 299.2 133.9;" xml:space="preserve">
<style type="text/css">
	.st0{fill-rule:evenodd;clip-rule:evenodd;fill:#a1a1aa;}
	.st1{fill-rule:evenodd;clip-rule:evenodd;}
</style>
<g>
	<path class="st0" d="M136.8,113.2c18-1.4,33.6-11.2,43-25.5c-2.9-1.8-6.4-3.3-10.5-4.7C162.9,99.4,150.9,111.1,136.8,113.2   L136.8,113.2z M136.8,0c18,1.4,33.6,11.2,43,25.5c-2.9,1.8-6.4,3.4-10.5,4.7C162.9,13.8,150.9,2,136.8,0L136.8,0z M165.5,31.4   C159.7,16.8,149.4,6,138.5,3c4.7,5.4,8.5,16.9,10.4,31.5C155,33.9,160.6,32.8,165.5,31.4L165.5,31.4z M181.5,28.4   c-3.1,1.8-6.9,3.4-11.2,4.8c2.2,6.7,3.5,14.1,3.7,21.8h15.1C188.8,45.3,186.1,36.3,181.5,28.4L181.5,28.4z M170.4,55h-20.1   c-0.1-6.2-0.4-12.1-1.1-17.7c6.3-0.7,12.1-1.7,17.4-3.1C168.8,40.6,170.2,47.6,170.4,55L170.4,55z M75.7,55   c0.3-10.4,3.5-20.1,8.7-28.4c2.9,2.1,6.7,4,11.1,5.6c-2.3,7-3.7,14.7-3.9,22.8L75.7,55L75.7,55z M98.4,33.1   c-2.4,6.6-3.9,14-4.1,21.9h20.4c0.1-6.3,0.4-12.5,1.1-18.1C109.4,36,103.5,34.8,98.4,33.1L98.4,33.1z M86,24.1   c2.6,2,6.1,3.9,10.4,5.5C102.6,13.5,114,2.1,127.9,0C110.6,1.4,95.5,10.6,86,24.1L86,24.1z M126.5,2.9c-4.7,5.3-8.5,16.7-10.4,31.3   c-6.2-0.8-11.9-2.1-16.7-3.6C105.3,16.2,115.7,5.7,126.5,2.9L126.5,2.9z M132.8,2.2c-0.1,0-0.3,0-0.4,0   c-5.8,0.1-10.9,13.4-13.1,32.4c4.7,0.5,9.7,0.8,14.8,0.8c4,0,7.9-0.2,11.6-0.5C143.5,15.9,138.6,2.6,132.8,2.2L132.8,2.2z    M146,37.6c0.5,5.4,0.9,11.3,0.9,17.4H118c0.1-6.2,0.4-12.2,0.9-17.7c4.9,0.5,10.1,0.8,15.4,0.8C138.4,38.1,142.3,37.9,146,37.6   L146,37.6z M165.5,81.8c-5.8,14.6-16.2,25.4-27.1,28.4c4.7-5.4,8.5-16.9,10.4-31.5C155,79.3,160.6,80.4,165.5,81.8L165.5,81.8z    M181.5,84.8c-3.1-1.8-6.9-3.4-11.2-4.8c2.2-6.7,3.5-14.1,3.7-21.8h15.1C188.8,67.8,186.1,76.9,181.5,84.8L181.5,84.8z M170.4,58.2   h-20.1c-0.1,6.2-0.4,12.1-1.1,17.7c6.3,0.7,12.1,1.7,17.4,3.1C168.8,72.6,170.2,65.6,170.4,58.2L170.4,58.2z M75.7,58.2   c0.3,10.4,3.5,20.1,8.7,28.4c2.9-2.1,6.7-4,11.1-5.6c-2.3-6.9-3.7-14.7-3.9-22.8L75.7,58.2L75.7,58.2z M98.4,80.1   c-2.4-6.6-3.9-14-4.1-21.9h20.4c0.1,6.3,0.4,12.4,1.1,18.1C109.4,77.2,103.5,78.4,98.4,80.1L98.4,80.1z M86,89.1   c2.6-2,6.1-3.9,10.4-5.5c6.1,16.1,17.6,27.5,31.4,29.5C110.6,111.8,95.5,102.6,86,89.1L86,89.1z M126.5,110.2   c-4.7-5.3-8.5-16.7-10.4-31.3c-6.2,0.8-11.9,2.1-16.7,3.6C105.3,97,115.7,107.4,126.5,110.2L126.5,110.2z M132.8,111   c-0.1,0-0.3,0-0.4,0c-5.8-0.1-10.9-13.4-13.1-32.4c4.7-0.5,9.7-0.8,14.8-0.8c4,0,7.9,0.2,11.6,0.5   C143.5,97.2,138.6,110.6,132.8,111L132.8,111z M146,75.6c0.5-5.4,0.9-11.3,0.9-17.4H118c0.1,6.2,0.4,12.2,0.9,17.7   c4.9-0.5,10.1-0.8,15.4-0.8C138.4,75.1,142.3,75.3,146,75.6z" fill="#ffffff"/>
	<path class="st1" d="M0.4,63.5H13v32.7H0.4V63.5L0.4,63.5z M196.4,133.3h-1.9v-16.8h2.1v6c0.9-1.1,2-1.6,3.3-1.6   c0.8,0,1.5,0.2,2.1,0.4c0.7,0.3,1.2,0.7,1.6,1.3c0.4,0.6,0.8,1.2,1,2c0.2,0.8,0.4,1.6,0.4,2.5c0,2.1-0.5,3.7-1.5,4.8   c-1,1.1-2.3,1.7-3.7,1.7s-2.6-0.6-3.4-1.8L196.4,133.3L196.4,133.3z M196.4,127.1c0,1.5,0.2,2.5,0.6,3.2c0.6,1.1,1.5,1.6,2.6,1.6   c0.9,0,1.7-0.4,2.3-1.2s1-1.9,1-3.5c0-1.6-0.3-2.8-0.9-3.5c-0.6-0.8-1.4-1.1-2.3-1.1c-0.9,0-1.7,0.4-2.3,1.2   S196.4,125.6,196.4,127.1L196.4,127.1z M215.5,133.3v-1.8c-0.9,1.4-2.2,2.1-3.9,2.1c-0.7,0-1.4-0.1-2-0.4c-0.6-0.3-1.1-0.6-1.4-1   s-0.5-0.9-0.6-1.5c-0.1-0.4-0.1-1.1-0.1-1.9v-7.5h2.1v6.7c0,1.1,0,1.8,0.1,2.2c0.1,0.5,0.4,1,0.8,1.3c0.4,0.3,0.9,0.5,1.6,0.5   c0.6,0,1.2-0.2,1.7-0.5c0.5-0.3,0.9-0.8,1.1-1.3c0.2-0.5,0.3-1.3,0.3-2.4v-6.5h2.1v12.2L215.5,133.3L215.5,133.3z M219.8,129.6   l2-0.3c0.1,0.8,0.4,1.4,1,1.9c0.5,0.4,1.3,0.6,2.2,0.6c0.9,0,1.6-0.2,2.1-0.6c0.5-0.4,0.7-0.8,0.7-1.4c0-0.5-0.2-0.8-0.6-1.1   c-0.3-0.2-1-0.4-2.1-0.7c-1.5-0.4-2.6-0.7-3.1-1c-0.6-0.3-1-0.7-1.3-1.2c-0.3-0.5-0.4-1-0.4-1.6c0-0.5,0.1-1,0.4-1.5   c0.2-0.5,0.6-0.8,1-1.2c0.3-0.2,0.8-0.4,1.3-0.6c0.6-0.2,1.1-0.2,1.8-0.2c0.9,0,1.8,0.1,2.5,0.4c0.7,0.3,1.3,0.7,1.6,1.1   c0.3,0.5,0.6,1.1,0.7,1.9l-2,0.3c-0.1-0.6-0.4-1.1-0.8-1.5c-0.4-0.4-1.1-0.5-1.9-0.5c-0.9,0-1.6,0.2-2,0.5   c-0.4,0.3-0.6,0.7-0.6,1.1c0,0.3,0.1,0.5,0.2,0.7c0.2,0.2,0.4,0.4,0.8,0.6c0.2,0.1,0.8,0.2,1.8,0.5c1.5,0.4,2.5,0.7,3.1,0.9   c0.6,0.2,1,0.6,1.4,1.1s0.5,1.1,0.5,1.8c0,0.7-0.2,1.3-0.6,1.9c-0.4,0.6-1,1.1-1.7,1.4c-0.8,0.3-1.6,0.5-2.6,0.5   c-1.6,0-2.8-0.3-3.6-1C220.5,131.9,220,130.9,219.8,129.6L219.8,129.6z M240.6,129.3l2.1,0.3c-0.3,1.2-0.9,2.2-1.9,2.9   s-2.1,1-3.5,1c-1.8,0-3.2-0.6-4.2-1.6c-1-1.1-1.6-2.6-1.6-4.6c0-2,0.5-3.6,1.6-4.8c1.1-1.1,2.4-1.7,4.1-1.7c1.6,0,2.9,0.6,4,1.7   s1.6,2.7,1.6,4.7c0,0.1,0,0.3,0,0.6h-9.1c0.1,1.3,0.4,2.4,1.1,3.1c0.7,0.7,1.5,1.1,2.5,1.1c0.8,0,1.4-0.2,1.9-0.6   C239.9,130.8,240.3,130.2,240.6,129.3L240.6,129.3z M233.9,126h6.8c-0.1-1-0.4-1.8-0.8-2.3c-0.6-0.8-1.5-1.2-2.6-1.2   c-0.9,0-1.7,0.3-2.4,0.9C234.3,124.1,233.9,124.9,233.9,126L233.9,126z M244.6,129.6l2-0.3c0.1,0.8,0.4,1.4,1,1.9   c0.5,0.4,1.3,0.6,2.2,0.6c0.9,0,1.6-0.2,2.1-0.6c0.5-0.4,0.7-0.8,0.7-1.4c0-0.5-0.2-0.8-0.6-1.1c-0.3-0.2-1-0.4-2.1-0.7   c-1.5-0.4-2.6-0.7-3.1-1c-0.6-0.3-1-0.7-1.3-1.2c-0.3-0.5-0.4-1-0.4-1.6c0-0.5,0.1-1,0.4-1.5c0.2-0.5,0.6-0.8,1-1.2   c0.3-0.2,0.8-0.4,1.3-0.6c0.6-0.2,1.1-0.2,1.8-0.2c0.9,0,1.8,0.1,2.5,0.4c0.7,0.3,1.3,0.7,1.6,1.1c0.3,0.5,0.6,1.1,0.7,1.9l-2,0.3   c-0.1-0.6-0.4-1.1-0.8-1.5c-0.4-0.4-1.1-0.5-1.9-0.5c-0.9,0-1.6,0.2-2,0.5c-0.4,0.3-0.6,0.7-0.6,1.1c0,0.3,0.1,0.5,0.2,0.7   c0.2,0.2,0.4,0.4,0.8,0.6c0.2,0.1,0.8,0.2,1.8,0.5c1.5,0.4,2.5,0.7,3.1,0.9c0.6,0.2,1,0.6,1.4,1.1s0.5,1.1,0.5,1.8   c0,0.7-0.2,1.3-0.6,1.9c-0.4,0.6-1,1.1-1.7,1.4c-0.8,0.3-1.6,0.5-2.6,0.5c-1.6,0-2.8-0.3-3.6-1   C245.3,131.9,244.8,130.9,244.6,129.6L244.6,129.6z M198.5,113.6l0.3,1.8c-0.6,0.1-1.1,0.2-1.6,0.2c-0.8,0-1.3-0.1-1.7-0.4   s-0.7-0.6-0.9-0.9c-0.2-0.4-0.2-1.2-0.2-2.4v-7h-1.5v-1.6h1.5v-3l2.1-1.2v4.2h2.1v1.6h-2.1v7.1c0,0.6,0,1,0.1,1.1s0.2,0.3,0.4,0.4   s0.4,0.2,0.7,0.2C197.8,113.7,198.1,113.7,198.5,113.6L198.5,113.6z M200.5,115.5v-12.2h1.9v1.9c0.5-0.9,0.9-1.4,1.3-1.7   c0.4-0.3,0.9-0.4,1.3-0.4c0.7,0,1.4,0.2,2.1,0.7l-0.7,1.9c-0.5-0.3-1-0.4-1.5-0.4c-0.4,0-0.9,0.1-1.2,0.4c-0.4,0.3-0.6,0.7-0.8,1.1   c-0.2,0.7-0.3,1.5-0.3,2.4v6.4L200.5,115.5L200.5,115.5z M216.3,115.5v-1.8c-0.9,1.4-2.2,2.1-3.9,2.1c-0.7,0-1.4-0.1-2-0.4   c-0.6-0.3-1.1-0.6-1.4-1s-0.5-0.9-0.6-1.5c-0.1-0.4-0.1-1.1-0.1-1.9v-7.5h2.1v6.7c0,1.1,0,1.8,0.1,2.2c0.1,0.5,0.4,1,0.8,1.3   c0.4,0.3,0.9,0.5,1.6,0.5c0.6,0,1.2-0.2,1.7-0.5c0.5-0.3,0.9-0.8,1.1-1.3c0.2-0.5,0.3-1.3,0.3-2.4v-6.5h2.1v12.2L216.3,115.5   L216.3,115.5z M229.3,111l2,0.3c-0.2,1.4-0.8,2.5-1.7,3.3s-2,1.2-3.4,1.2c-1.7,0-3-0.5-4-1.6s-1.5-2.6-1.5-4.7   c0-1.3,0.2-2.5,0.6-3.4c0.4-1,1.1-1.7,2-2.2s1.9-0.7,2.9-0.7c1.3,0,2.4,0.3,3.2,1c0.8,0.7,1.4,1.6,1.6,2.8l-2,0.3   c-0.2-0.8-0.5-1.4-1-1.8c-0.5-0.4-1.1-0.6-1.8-0.6c-1,0-1.9,0.4-2.5,1.1c-0.6,0.8-1,1.9-1,3.5c0,1.6,0.3,2.8,0.9,3.6   s1.4,1.1,2.4,1.1c0.8,0,1.5-0.2,2-0.7C228.8,112.8,229.2,112,229.3,111L229.3,111z M233.1,115.5V98.7h2.1v9.6l4.9-4.9h2.7l-4.6,4.5   l5.1,7.7h-2.5l-4-6.2l-1.4,1.4v4.8L233.1,115.5L233.1,115.5z M244,111.8l2-0.3c0.1,0.8,0.4,1.4,1,1.9c0.5,0.4,1.3,0.7,2.2,0.7   c0.9,0,1.7-0.2,2.1-0.6c0.5-0.4,0.7-0.8,0.7-1.4c0-0.5-0.2-0.8-0.6-1.1c-0.3-0.2-1-0.4-2.1-0.7c-1.5-0.4-2.6-0.7-3.1-1   c-0.6-0.3-1-0.7-1.3-1.2c-0.3-0.5-0.4-1-0.4-1.6c0-0.5,0.1-1,0.4-1.5c0.2-0.5,0.6-0.8,1-1.2c0.3-0.2,0.8-0.4,1.3-0.6   c0.6-0.2,1.1-0.2,1.8-0.2c0.9,0,1.8,0.1,2.5,0.4c0.7,0.3,1.3,0.7,1.6,1.1c0.3,0.5,0.6,1.1,0.7,1.9l-2,0.3c-0.1-0.6-0.4-1.1-0.8-1.5   c-0.4-0.4-1.1-0.5-1.9-0.5c-0.9,0-1.6,0.2-2,0.5c-0.4,0.3-0.6,0.7-0.6,1.1c0,0.3,0.1,0.5,0.2,0.7c0.2,0.2,0.4,0.4,0.8,0.6   c0.2,0.1,0.8,0.2,1.8,0.5c1.5,0.4,2.5,0.7,3.1,0.9c0.6,0.2,1,0.6,1.4,1.1s0.5,1.1,0.5,1.8c0,0.7-0.2,1.3-0.6,1.9   c-0.4,0.6-1,1.1-1.7,1.4c-0.8,0.3-1.6,0.5-2.6,0.5c-1.6,0-2.8-0.3-3.6-1C244.8,114.1,244.2,113.1,244,111.8L244,111.8z    M279.2,113.5c-0.7,0.8-1.4,1.3-2.2,1.7c-0.8,0.4-1.7,0.6-2.6,0.6c-1.7,0-3.1-0.6-4.1-1.7c-0.8-0.9-1.2-2-1.2-3.2c0-1,0.3-2,1-2.8   c0.7-0.8,1.7-1.6,3-2.2c-0.8-0.9-1.3-1.6-1.5-2.1c-0.2-0.5-0.4-1.1-0.4-1.6c0-1,0.4-1.9,1.2-2.6c0.8-0.8,1.8-1.1,3-1.1   c1.1,0,2.1,0.3,2.8,1.1c0.7,0.7,1.1,1.6,1.1,2.5c0,1.6-1.1,3-3.2,4.1l3,3.8c0.4-0.7,0.6-1.4,0.8-2.3l2.1,0.5   c-0.4,1.5-0.9,2.7-1.5,3.6c0.8,1,1.6,1.9,2.6,2.6l-1.4,1.6C281,115.3,280.1,114.5,279.2,113.5L279.2,113.5z M275,104.7   c0.9-0.5,1.5-1,1.7-1.4c0.3-0.4,0.4-0.8,0.4-1.3c0-0.6-0.2-1-0.5-1.4c-0.4-0.4-0.8-0.6-1.4-0.6c-0.6,0-1,0.2-1.4,0.5   s-0.6,0.8-0.6,1.3c0,0.3,0.1,0.5,0.2,0.8c0.1,0.3,0.3,0.6,0.6,0.9L275,104.7L275,104.7z M277.9,111.9l-3.8-4.7   c-1.1,0.7-1.9,1.3-2.3,1.8c-0.4,0.6-0.6,1.1-0.6,1.7c0,0.7,0.3,1.4,0.8,2.1s1.3,1.1,2.3,1.1c0.6,0,1.3-0.2,1.9-0.6   C277,112.9,277.5,112.5,277.9,111.9L277.9,111.9z M20.5,63.5h11.7v4.8c1.7-2,3.4-3.4,5.1-4.3c1.7-0.8,3.8-1.3,6.2-1.3   c2.6,0,4.7,0.5,6.2,1.4c1.5,0.9,2.8,2.3,3.7,4.1c2-2.1,3.8-3.6,5.4-4.4c1.6-0.8,3.6-1.2,6-1.2c3.5,0,6.2,1,8.2,3.1   c2,2.1,2.9,5.3,2.9,9.8v20.6H63.4V77.6c0-1.5-0.3-2.6-0.9-3.3c-0.8-1.1-1.9-1.7-3.1-1.7c-1.5,0-2.7,0.5-3.6,1.6   c-0.9,1.1-1.3,2.8-1.3,5.2v16.9H41.9v-18c0-1.4-0.1-2.4-0.2-2.9c-0.3-0.8-0.7-1.5-1.4-2c-0.7-0.5-1.4-0.8-2.3-0.8   c-1.4,0-2.6,0.6-3.5,1.6C33.5,75.3,33,77,33,79.5v16.7H20.5V63.5L20.5,63.5z M82.9,112.9V63.5h11.8v4.8c1.6-2,3.1-3.4,4.5-4.1   c1.8-1,3.8-1.5,6.1-1.5c4.4,0,7.8,1.7,10.2,5c2.4,3.3,3.6,7.5,3.6,12.4c0,5.5-1.3,9.6-3.9,12.5c-2.6,2.9-5.9,4.3-9.9,4.3   c-1.9,0-3.7-0.3-5.3-1c-1.6-0.7-3-1.6-4.3-2.9v19.8H82.9L82.9,112.9z M95.5,80c0,2.6,0.6,4.5,1.6,5.8c1.1,1.3,2.5,1.9,4.1,1.9   c1.4,0,2.7-0.6,3.7-1.8c1-1.2,1.5-3.3,1.5-6.2c0-2.7-0.5-4.6-1.5-5.9c-1-1.2-2.3-1.9-3.8-1.9c-1.6,0-2.9,0.6-4,1.9   C96,75.1,95.5,77.2,95.5,80L95.5,80z M124.4,63.5h11.8v5.3c1.1-2.3,2.3-3.9,3.5-4.8c1.2-0.9,2.7-1.3,4.5-1.3c1.9,0,3.9,0.6,6.1,1.7   l-3.9,8.9c-1.5-0.6-2.7-0.9-3.5-0.9c-1.6,0-2.9,0.7-3.8,2c-1.3,1.9-1.9,5.5-1.9,10.7v11h-12.6L124.4,63.5L124.4,63.5z M151.1,80   c0-5,1.7-9.1,5.1-12.4c3.4-3.2,7.9-4.9,13.6-4.9c6.6,0,11.5,1.9,14.8,5.7c2.7,3.1,4,6.8,4,11.3c0,5.1-1.7,9.2-5,12.4   c-3.3,3.2-7.9,4.8-13.8,4.8c-5.2,0-9.5-1.3-12.7-4C153.1,89.7,151.1,85.3,151.1,80L151.1,80z M163.7,80c0,2.9,0.6,5.1,1.8,6.5   c1.2,1.4,2.6,2.1,4.4,2.1c1.8,0,3.3-0.7,4.4-2.1c1.2-1.4,1.7-3.6,1.7-6.6c0-2.8-0.6-5-1.7-6.4c-1.2-1.4-2.6-2.1-4.3-2.1   c-1.8,0-3.3,0.7-4.5,2.1C164.3,74.9,163.7,77.1,163.7,80L163.7,80z M209.2,51.1v12.4h6.9v9.2h-6.9v11.6c0,1.4,0.1,2.3,0.4,2.8   c0.4,0.7,1.1,1,2.2,1c0.9,0,2.2-0.3,3.9-0.8l0.9,8.7c-3.1,0.7-6,1-8.7,1c-3.1,0-5.4-0.4-6.9-1.2c-1.5-0.8-2.6-2-3.3-3.7   c-0.7-1.6-1.1-4.3-1.1-7.9V72.7h-4.6v-9.2h4.6v-6L209.2,51.1L209.2,51.1z M257.8,83h-25.2c0.2,2,0.8,3.5,1.6,4.5   c1.2,1.4,2.8,2.1,4.8,2.1c1.2,0,2.4-0.3,3.5-0.9c0.7-0.4,1.4-1.1,2.2-2.1l12.4,1.1c-1.9,3.3-4.2,5.7-6.8,7.1   c-2.7,1.4-6.5,2.1-11.5,2.1c-4.3,0-7.8-0.6-10.2-1.8c-2.5-1.2-4.5-3.2-6.2-5.8c-1.6-2.7-2.4-5.8-2.4-9.4c0-5.1,1.6-9.3,4.9-12.4   c3.3-3.2,7.8-4.8,13.6-4.8c4.7,0,8.4,0.7,11.1,2.1c2.7,1.4,4.8,3.5,6.2,6.2c1.4,2.7,2.1,6.2,2.1,10.5L257.8,83L257.8,83z M245,77   c-0.2-2.4-0.9-4.2-2-5.2c-1.1-1.1-2.4-1.6-4.2-1.6c-2,0-3.6,0.8-4.8,2.4c-0.8,1-1.2,2.5-1.4,4.4L245,77L245,77z M258.4,63.5h14.9   l5.2,9.1l6-9.1h13.8l-11.1,15.6l12,17.1h-14.6l-6-10.5l-7.2,10.5h-13.6l11.9-17.1L258.4,63.5z" fill="#ffffff"/>
	<path class="st0" d="M283,127.2c0,3.7-3,6.8-6.8,6.8s-6.8-3-6.8-6.8s3-6.8,6.8-6.8C280,120.4,283,123.4,283,127.2L283,127.2z    M13.5,52.2c0,3.7-3,6.8-6.8,6.8C3,59,0,56,0,52.2c0-3.7,3-6.8,6.8-6.8S13.5,48.5,13.5,52.2z" fill="#ffffff"/>
</g>
</svg>